<svg xmlns="http://www.w3.org/2000/svg" width="19.35" height="19.35" viewBox="0 0 19.35 19.35"><defs><style>.a{fill:#fff;}</style></defs><g transform="translate(-56.58 -54.33)"><path class="a" d="M74.93,61.85H73.12a.685.685,0,0,1-.68-.7.673.673,0,0,1,.2-.48l1.28-1.28a1,1,0,0,0,0-1.41l-1.63-1.63a1.014,1.014,0,0,0-1.41,0l-1.29,1.27a.69.69,0,0,1-1.18-.49v-1.8a1,1,0,0,0-.99-1H65.1a1,1,0,0,0-1,1v1.81a.7.7,0,0,1-.71.68.668.668,0,0,1-.47-.2l-1.28-1.28a1.014,1.014,0,0,0-1.41,0L58.6,57.97a1,1,0,0,0,0,1.41l1.27,1.29a.69.69,0,0,1-.49,1.18h-1.8a1,1,0,0,0-1,.99v2.32a1,1,0,0,0,1,1h1.81a.686.686,0,0,1,.48,1.18l-1.28,1.28a1,1,0,0,0,0,1.41l1.63,1.63a1.014,1.014,0,0,0,1.41,0l1.29-1.27a.69.69,0,0,1,1.18.49v1.81a1.012,1.012,0,0,0,.99.99h2.32a1,1,0,0,0,1-1h0V70.87a.672.672,0,0,1,.43-.64.659.659,0,0,1,.76.15l1.28,1.28a1.014,1.014,0,0,0,1.41,0l1.63-1.63a1,1,0,0,0,0-1.41l-1.28-1.28a.69.69,0,0,1,.49-1.18h1.81a1.012,1.012,0,0,0,.99-.99V62.85A1,1,0,0,0,74.93,61.85Zm.28,3.3a.28.28,0,0,1-.28.28H73.12a1.408,1.408,0,0,0-1.41,1.41,1.45,1.45,0,0,0,.41,1l1.29,1.28a.284.284,0,0,1,0,.4l-1.63,1.63a.284.284,0,0,1-.4,0L70.1,69.87a1.41,1.41,0,0,0-2.41,1v1.81a.28.28,0,0,1-.28.28H65.09a.28.28,0,0,1-.28-.28h0V70.87a1.378,1.378,0,0,0-.87-1.3,1.4,1.4,0,0,0-1.54.31l-1.28,1.28a.284.284,0,0,1-.4,0L59.1,69.53a.284.284,0,0,1,0-.4l1.28-1.28a1.406,1.406,0,0,0,0-1.99,1.367,1.367,0,0,0-1-.41H57.57a.28.28,0,0,1-.28-.28h0V62.86a.28.28,0,0,1,.28-.28h1.81a1.408,1.408,0,0,0,1.41-1.41,1.45,1.45,0,0,0-.41-1L59.1,58.89a.284.284,0,0,1,0-.4l1.63-1.63a.284.284,0,0,1,.4,0l1.28,1.28a1.41,1.41,0,0,0,2.41-1V55.33a.28.28,0,0,1,.28-.28h2.31a.28.28,0,0,1,.28.28h0v1.81a1.408,1.408,0,0,0,1.41,1.41,1.45,1.45,0,0,0,1-.41l1.28-1.28a.284.284,0,0,1,.4,0l1.63,1.63a.284.284,0,0,1,0,.4l-1.28,1.28a1.41,1.41,0,0,0,1,2.41h1.81a.28.28,0,0,1,.28.28h0v2.31h-.01Z"/><path class="a" d="M66.25,60.77A3.225,3.225,0,1,0,69.48,64,3.226,3.226,0,0,0,66.25,60.77Zm0,5.75A2.52,2.52,0,1,1,68.77,64,2.522,2.522,0,0,1,66.25,66.52Z"/></g></svg>