<svg xmlns="http://www.w3.org/2000/svg" width="19.36" height="19.36" viewBox="0 0 19.36 19.36"><defs><style>.a{fill:#fff;}</style></defs><g transform="translate(-57.47 -46.68)"><path class="a" d="M73.61,53.75,72.06,52.2a.389.389,0,0,0-.55.55l.89.89H70.24a3.492,3.492,0,0,0-3.1,1.89,3.492,3.492,0,0,0-3.1-1.89H61.88l.89-.89a.389.389,0,1,0-.55-.55l-1.55,1.55a.392.392,0,0,0,0,.55l1.55,1.55a.362.362,0,0,0,.27.11.386.386,0,0,0,.27-.11.392.392,0,0,0,0-.55l-.89-.89h2.16a2.719,2.719,0,0,1,2.71,2.71v5.42a.39.39,0,0,0,.39.39.384.384,0,0,0,.39-.39V57.12a2.719,2.719,0,0,1,2.71-2.71h2.16l-.89.89a.392.392,0,0,0,0,.55.362.362,0,0,0,.27.11.386.386,0,0,0,.27-.11l1.55-1.55a.361.361,0,0,0,.02-.55Z"/><path class="a" d="M67.15,46.68a9.68,9.68,0,1,0,9.68,9.68A9.688,9.688,0,0,0,67.15,46.68Zm0,18.57a8.9,8.9,0,1,1,8.9-8.9A8.907,8.907,0,0,1,67.15,65.25Z"/></g></svg>