<svg xmlns="http://www.w3.org/2000/svg" width="19.04" height="19.04" viewBox="0 0 19.04 19.04"><defs><style>.a{fill:#fff;}</style></defs><g transform="translate(-57.86 -47.48)"><path class="a" d="M76.79,65.89l-6.56-6.56L58.49,47.59a.35.35,0,0,0-.4-.08.369.369,0,0,0-.23.34v18.3a.376.376,0,0,0,.37.37h18.3a.369.369,0,0,0,.34-.23.35.35,0,0,0-.08-.4ZM58.6,65.78V48.73l1.8,1.8-.52.52a.368.368,0,0,0,.52.52l.52-.52.78.78-.78.78a.361.361,0,0,0,.51.51l.78-.78.78.77-.52.52h0a.373.373,0,0,0-.12.26.376.376,0,0,0,.38.38.373.373,0,0,0,.26-.12l.52-.52.76.78-.77.78a.368.368,0,1,0,.52.52l.78-.78.78.78-.52.52h0a.37.37,0,0,0,.26.63.363.363,0,0,0,.26-.11l.52-.52.77.77-.78.78h0a.368.368,0,0,0,.52.52l.78-.78.78.78-.52.52a.37.37,0,0,0,.26.63.363.363,0,0,0,.26-.11l.52-.52.78.78-.78.78h0a.368.368,0,0,0,.52.52l.78-.77.78.78-.52.51a.373.373,0,0,0-.12.26.376.376,0,0,0,.38.38.355.355,0,0,0,.26-.12l.52-.52.78.78-.78.78a.37.37,0,0,0,.26.63.4.4,0,0,0,.25-.1l.78-.78.78.78-.52.52h0a.362.362,0,0,0,0,.52.374.374,0,0,0,.52,0l.52-.52,1.8,1.8Z"/></g></svg>