<svg xmlns="http://www.w3.org/2000/svg" width="22.5" height="20" viewBox="0 0 22.5 20"><defs><style>.a{fill:#fff;}</style></defs><g transform="translate(-53.96 -48.19)"><path class="a" d="M63.13,65.69H67.3a.4.4,0,0,0,.42-.42V48.61a.4.4,0,0,0-.42-.42H63.13a.4.4,0,0,0-.42.42V65.28A.4.4,0,0,0,63.13,65.69Zm.42-16.67h3.33V64.85H63.55V49.02ZM56.46,65.69h4.17a.4.4,0,0,0,.42-.42v-7.5a.4.4,0,0,0-.42-.42H56.46a.4.4,0,0,0-.42.42v7.5A.4.4,0,0,0,56.46,65.69Zm.42-7.5h3.33v6.67H56.88V58.19Zm12.92,7.5h4.17a.4.4,0,0,0,.42-.42V52.77a.4.4,0,0,0-.42-.42H69.8a.4.4,0,0,0-.42.42v12.5A.4.4,0,0,0,69.8,65.69Zm.41-12.5h3.33V64.86H70.21Zm6.25,14.58a.4.4,0,0,1-.42.42H54.38a.42.42,0,1,1,0-.84H76.05A.4.4,0,0,1,76.46,67.77Z"/></g></svg>