<?xml version="1.0" encoding="utf-8"?>
<!-- Generator: Adobe Illustrator 26.0.1, SVG Export Plug-In . SVG Version: 6.00 Build 0)  -->
<svg version="1.1" id="Calque_1" xmlns="http://www.w3.org/2000/svg" xmlns:xlink="http://www.w3.org/1999/xlink" x="0px" y="0px"
	 viewBox="0 0 128 128" style="enable-background:new 0 0 128 128;" xml:space="preserve">
<style type="text/css">
	.st0{fill:#0087CF;}
</style>
<g>
	<g>
		<g>
			<path class="st0" d="M63.13,65.69h4.17c0.25,0,0.42-0.17,0.42-0.42V48.61c0-0.25-0.17-0.42-0.42-0.42h-4.17
				c-0.25,0-0.42,0.17-0.42,0.42v16.67C62.71,65.52,62.88,65.69,63.13,65.69z M63.55,49.02h3.33v15.83h-3.33V49.02z M56.46,65.69
				h4.17c0.25,0,0.42-0.17,0.42-0.42v-7.5c0-0.25-0.17-0.42-0.42-0.42h-4.17c-0.25,0-0.42,0.17-0.42,0.42v7.5
				C56.05,65.52,56.21,65.69,56.46,65.69z M56.88,58.19h3.33v6.67h-3.33V58.19z M69.8,65.69h4.17c0.25,0,0.42-0.17,0.42-0.42v-12.5
				c0-0.25-0.17-0.42-0.42-0.42H69.8c-0.25,0-0.42,0.17-0.42,0.42v12.5C69.38,65.52,69.55,65.69,69.8,65.69z M70.21,53.19h3.33
				v11.67h-3.33V53.19z M76.46,67.77c0,0.25-0.17,0.42-0.42,0.42H54.38c-0.25,0-0.42-0.17-0.42-0.42s0.17-0.42,0.42-0.42h21.67
				C76.3,67.36,76.46,67.52,76.46,67.77z"/>
		</g>
	</g>
</g>
</svg>
